<svg xmlns="http://www.w3.org/2000/svg" viewBox="0 0 1000 1000" width="100%" height="100%">
  <!-- Glyph ID: g_p03_l07_verso6_06_u | Char: u | Category: minuscula | Nodes: 59 -->
  <g id="glyph" fill="#111827" stroke="none" transform="translate(89.98, 134.09) scale(8.3319)">
    <path d="M 86.0625,12.1875 C 88.0025,12.9975 88.0025,12.9975 90.0025,15.9975 C 89.7325,20.0975 88.4125,22.0175 85.5625,24.877499999999998 C 82.2325,28.4875 81.2225,31.1975 80.0025,35.9975 C 79.0725,37.7475 78.1125,39.4775 77.1225,41.1875 C 73.1725,48.2075 69.6125,55.7975 70.0025,63.9975 C 70.5425,63.9775 70.5425,63.9775 73.3125,63.8775 C 77.0025,63.9975 77.0025,63.9975 80.0025,65.9975 C 79.1225,71.8775 79.1225,71.8775 78.0025,72.9975 C 72.7525,73.95750000000001 67.77250000000001,74.8375 63.0025,71.9975 C 59.7425,68.7475 60.182500000000005,64.7875 59.9025,60.3375 C 60.072500000000005,54.6275 62.3725,51.0675 65.8125,46.6875 C 66.2025,46.1275 66.5925,45.5775 67.0025,44.9975 C 66.6725,44.0075 66.3425,43.0175 66.0025,41.9975 C 57.5625,48.3775 57.5625,48.3775 54.5625,51.6875 C 51.4225,54.5175 48.3725,55.5775 44.4025,56.9075 C 42.0025,57.9975 42.0025,57.9975 40.0625,60.0375 C 37.4525,62.5275 35.6025,62.8275 32.0625,63.3775 C 31.042499999999997,63.5475 30.0225,63.7175 28.972499999999997,63.8975 C 25.7025,64.0075 23.8425,63.5975 21.002499999999998,61.9975 C 20.022499999999994,59.0775 19.802499999999995,56.9875 19.752499999999998,53.9375 C 19.722499999999997,53.0575 19.7025,52.1775 19.6725,51.2775 C 19.7825,50.5275 19.8925,49.7775 20.002499999999998,48.9975 C 20.992500000000007,48.3375 21.9825,47.6775 23.002499999999998,46.9975 C 22.6725,45.6775 22.3425,44.3575 22.002499999999998,42.9975 C 17.052499999999995,43.4375 14.692499999999995,45.8475 11.002499999999998,48.9975 C 9.352500000000006,49.7075 7.6825000000000045,50.3775 6.002499999999998,50.9975 C 4.662499999999994,51.9975 3.332499999999996,52.9975 2.0024999999999977,53.9975 C 1.3425000000000011,53.9975 0.6825000000000045,53.9975 0.0024999999999977263,53.9975 C 0.0024999999999977263,51.0275 0.0024999999999977263,48.0575 0.0024999999999977263,44.9975 C 0.5125000000000028,44.8875 0.5125000000000028,44.8875 3.1225000000000023,44.3075 C 6.5625,43.3475 8.502499999999998,41.7775 11.142499999999998,39.3475 C 13.582499999999996,37.5775 16.122500000000002,36.6475 18.942499999999995,35.567499999999995 C 26.4625,32.5875 31.042499999999997,29.0575 35.0025,21.997500000000002 C 36.8125,19.4575 38.6525,17.0775 41.0025,14.9975 C 43.8725,14.567499999999999 43.8725,14.567499999999999 46.0025,14.9975 C 47.1825,17.1275 47.1825,17.1275 48.0025,19.9975 C 46.3125,24.8575 43.9225,26.877499999999998 40.0025,29.9975 C 34.0725,36.447500000000005 29.8825,43.0975 29.8125,52.0675 C 29.872500000000002,53.0275 29.932499999999997,53.9975 30.002499999999998,54.9975 C 30.762500000000003,54.5675 31.5225,54.1375 32.3125,53.6875 C 35.2925,52.1375 38.1525,51.5375 41.4425,50.8775 C 47.0825,49.4475 49.3925,46.9175 52.5625,42.1575 C 54.8825,38.677499999999995 56.4825,37.2175 60.3725,35.567499999999995 C 65.4325,33.3775 68.4725,30.9075 71.5025,26.377499999999998 C 73.6725,23.1175 73.6725,23.1175 76.6825,21.997500000000002 C 77.0725,21.8375 77.0725,21.8375 79.0025,20.997500000000002 C 79.7425,18.6875 80.4125,16.3575 81.0025,13.9975 C 84.0025,11.9975 84.0025,11.9975 86.0625,12.1875 M 71.0025,33.9975 C 69.3725,36.4975 69.3725,36.4975 68.0025,38.9975 C 68.6625,39.6575 69.3225,40.317499999999995 70.0025,40.9975 C 71.3225,39.677499999999995 72.6425,38.3575 74.0025,36.9975 C 73.6725,36.0075 73.3425,35.0175 73.0025,33.9975 C 72.3425,33.9975 71.6825,33.9975 71.0025,33.9975 M 98.0,56.0 C 98.56,59.12 98.56,59.12 98.0,63.0 C 95.35,65.66 92.5,67.62 89.0,69.0 C 86.2,68.66 86.2,68.66 84.0,68.0 C 83.75,65.19 83.75,65.19 84.0,62.0 C 86.77,59.02 90.18,58.16 94.0,57.0 C 96.0,56.0 96.0,56.0 98.0,56.0" fill-rule="evenodd" />
  </g>
</svg>