<svg xmlns="http://www.w3.org/2000/svg" viewBox="0 0 1000 1000" width="100%" height="100%">
  <!-- Glyph: e | Category: minuscula | Nodes: 28 | Engine: v2_enhanced -->
  <g id="glyph" fill="#111827" stroke="none" transform="translate(65.06, 57.95) scale(13.8078)">
    <path d="M 43.0,7.0 C 46.37,9.77 46.93,11.57 47.62,15.88 C 46.78,21.47 45.17,23.22 41.0,27.0 C 38.12,27.44 38.12,27.44 36.0,27.0 C 36.0,25.02 36.0,23.04 36.0,21.0 C 37.65,20.009999999999998 39.3,19.02 41.0,18.0 C 41.0,17.009999999999998 41.0,16.02 41.0,15.0 C 39.68,15.0 38.36,15.0 37.0,15.0 C 36.67,15.66 36.34,16.32 36.0,17.0 C 33.69,17.0 31.380000000000003,17.0 29.0,17.0 C 28.560000000000002,14.809999999999999 28.560000000000002,14.809999999999999 29.0,12.0 C 33.480000000000004,7.88 36.72,5.8100000000000005 43.0,7.0 M 29.0,21.0 C 28.57,26.42 27.46,28.9 24.0,33.0 C 22.79,36.230000000000004 22.79,37.46 24.06,40.69 C 26.48,43.58 28.39,44.1 32.0,45.0 C 32.99,45.33 33.980000000000004,45.66 35.0,46.0 C 35.66,44.35 36.32,42.7 37.0,41.0 C 38.11,40.879999999999995 39.230000000000004,40.75 40.38,40.620000000000005 C 44.0,40.0 44.0,40.0 46.0,38.0 C 48.620000000000005,37.879999999999995 48.620000000000005,37.879999999999995 51.0,38.0 C 51.0,39.980000000000004 51.0,41.96 51.0,44.0 C 50.6,44.15 50.6,44.15 48.56,44.94 C 46.0,46.0 46.0,46.0 45.0,47.0 C 42.33,47.04 39.67,47.04 37.0,47.0 C 36.67,47.989999999999995 36.34,48.980000000000004 36.0,50.0 C 27.32,50.65 20.880000000000003,48.620000000000005 13.0,45.0 C 12.670000000000002,44.67 12.34,44.34 12.0,44.0 C 12.79,35.92 14.85,30.35 20.0,24.0 C 23.46,21.38 24.56,21.0 29.0,21.0" fill-rule="evenodd" />
  </g>
</svg>