<svg xmlns="http://www.w3.org/2000/svg" viewBox="0 0 1000 1000" width="100%" height="100%">
  <!-- Glyph ID: g_p03_l07_verso6_04_j | Char: j | Category: minuscula | Nodes: 86 -->
  <g id="glyph" fill="#111827" stroke="none" transform="translate(327.59, 132.80) scale(3.2314)">
    <path d="M 104.0,6.0 C 105.23,11.42 105.23,11.42 104.06,14.38 C 103.71,14.91 103.36,15.45 103.0,16.0 C 99.51,14.89 96.23,13.74 93.0,12.0 C 93.0,10.68 93.0,9.36 93.0,8.0 C 97.1,5.61 99.39,4.51 104.0,6.0 M 75.0,70.0 C 77.92,71.07 79.78,71.78 82.0,74.0 C 81.78,78.6 79.57,81.19 76.75,84.69 C 73.25,89.13 70.56,93.56 68.18,98.69 C 66.59,101.8 64.51,104.38 62.36,107.11 C 60.34,109.91 59.22,112.78 58.0,116.0 C 57.84,116.33 57.84,116.33 57.0,118.0 C 58.980000000000004,118.0 60.96,118.0 63.0,118.0 C 63.14,117.07 63.29,116.14 63.44,115.19 C 65.0,112.0 65.0,112.0 67.0,111.11 C 68.6,110.66 70.21,110.22 71.82,109.78999999999999 C 74.88,108.68 76.04,106.5 78.0,104.0 C 78.99,104.02000000000001 79.98,104.03999999999999 81.0,104.06 C 81.99,104.03999999999999 82.98,104.02000000000001 84.0,104.0 C 86.25,101.12 86.25,101.12 88.0,98.0 C 88.66,97.34 89.32,96.68 90.0,96.0 C 91.07,96.06 92.14,96.12 93.25,96.19 C 98.27,95.94 99.35,94.32 103.0,91.0 C 105.38,90.19 105.38,90.19 107.0,90.0 C 107.0,92.31 107.0,94.62 107.0,97.0 C 106.03,97.53999999999999 105.06,98.07 104.06,98.62 C 92.99,104.96000000000001 92.99,104.96000000000001 89.45,108.59 C 88.0,110.0 88.0,110.0 84.62,111.44 C 81.11,112.95 78.95,114.63 76.0,117.0 C 72.75,118.85 69.53,120.68 65.85,121.46000000000001 C 64.0,122.0 64.0,122.0 62.5,124.5 C 61.0,127.0 61.0,127.0 59.12,127.5 C 58.769999999999996,127.58 58.769999999999996,127.58 57.0,128.0 C 55.32,129.66 53.66,131.32 52.0,133.0 C 49.21,135.28 46.370000000000005,137.5 43.519999999999996,139.72 C 41.0,142.0 39.67,144.07999999999998 38.0,147.0 C 36.99,147.78 35.98,148.57 34.94,149.38 C 32.0,152.0 32.0,152.0 31.0,155.56 C 29.700000000000003,160.01999999999998 27.96,160.75 24.0,163.0 C 19.810000000000002,165.87 18.159999999999997,168.18 16.439999999999998,172.94 C 14.829999999999998,177.34 13.020000000000003,180.42000000000002 10.0,184.0 C 9.219999999999999,185.25 8.459999999999994,186.51999999999998 7.75,187.81 C 7.170000000000002,188.86 6.590000000000003,189.92000000000002 6.0,191.0 C 4.019999999999996,191.0 2.0400000000000063,191.0 0.0,191.0 C -0.0799999999999983,189.20999999999998 -0.14000000000000057,187.42000000000002 -0.18999999999999773,185.62 C -0.21999999999999886,184.63 -0.2600000000000051,183.63 -0.29000000000000625,182.6 C -0.20000000000000284,181.74 -0.09999999999999432,180.88 0.0,180.0 C 0.5,179.67000000000002 0.5,179.67000000000002 3.0,178.0 C 4.010000000000005,176.34 5.010000000000005,174.67000000000002 6.0,173.0 C 6.329999999999998,172.84 6.329999999999998,172.84 8.0,172.0 C 8.260000000000005,170.3 8.459999999999994,168.59 8.620000000000005,166.88 C 9.540000000000006,161.26 11.399999999999999,158.87 15.829999999999998,155.44 C 18.0,154.0 18.0,154.0 20.490000000000002,152.67000000000002 C 23.58,150.61 25.229999999999997,148.34 27.380000000000003,145.31 C 30.58,140.89 33.87,136.72 37.59,132.72 C 39.0,131.0 39.0,131.0 39.96,128.86 C 41.0,127.0 41.0,127.0 44.620000000000005,125.75 C 45.739999999999995,125.5 46.85,125.25 48.0,125.0 C 48.0,124.34 48.0,123.68 48.0,123.0 C 46.68,122.34 45.36,121.68 44.0,121.0 C 44.3,119.14 44.3,119.14 45.0,117.0 C 46.72,115.81 48.44,114.62 50.18,113.45 C 52.67,111.46000000000001 53.91,109.21000000000001 55.47,106.46000000000001 C 57.91,102.53999999999999 60.82,98.99 63.7,95.39 C 67.0,91.21000000000001 67.0,91.21000000000001 67.0,89.0 C 62.37,90.56 58.83,93.08 54.94,95.94 C 54.33,96.38 53.71,96.82 53.08,97.28 C 50.620000000000005,99.07 48.17,100.87 45.769999999999996,102.75 C 43.370000000000005,104.44 40.77,105.08 38.0,106.0 C 37.84,106.33 37.84,106.33 37.0,108.0 C 35.8,108.25 34.61,108.5 33.38,108.75 C 30.07,109.5 28.21,110.42 25.75,112.75 C 21.92,116.35 17.6,118.36 12.880000000000003,120.61 C 10.480000000000004,121.77000000000001 8.219999999999999,123.0 5.939999999999998,124.38 C 3.0,126.0 3.0,126.0 0.0,126.0 C -0.480000000000004,119.7 -0.480000000000004,119.7 1.6899999999999977,116.56 C 4.0,115.0 4.0,115.0 6.409999999999997,115.14 C 9.0,115.0 9.0,115.0 10.959999999999994,113.36 C 11.259999999999998,113.0 11.259999999999998,113.0 12.810000000000002,111.19 C 16.630000000000003,107.11 19.770000000000003,105.6 25.0,104.0 C 30.82,101.35 30.82,101.35 32.0,99.0 C 33.89,98.32 33.89,98.32 36.25,97.69 C 40.69,96.3 42.78,94.39 46.0,91.0 C 47.269999999999996,90.31 48.56,89.66 49.879999999999995,89.06 C 53.47,87.38 56.08,85.37 59.0,82.71000000000001 C 62.34,79.85 65.96000000000001,77.37 69.55,74.83 C 71.56,73.32 73.29,71.84 75.0,70.0" fill-rule="evenodd" />
  </g>
</svg>