<svg xmlns="http://www.w3.org/2000/svg" viewBox="0 0 1000 1000" width="100%" height="100%">
  <!-- Glyph ID: g_p03_l10_verso9_02_A | Char: A | Category: mayuscula | Nodes: 243 -->
  <g id="glyph" fill="#111827" stroke="none" transform="translate(195.00, 50.00) scale(5.0000)">
    <path d="M 22.0,0.0 C 23.98,0.0 25.96,0.0 28.0,0.0 C 29.29,4.39 28.61,7.06 27.06,11.31 C 26.68,12.38 26.3,13.45 25.91,14.55 C 25.61,15.36 25.31,16.17 25.0,17.0 C 24.009999999999998,17.0 23.02,17.0 22.0,17.0 C 21.75,16.38 21.5,15.76 21.25,15.12 C 19.79,12.65 18.62,12.05 16.0,11.0 C 15.690000000000001,8.75 15.690000000000001,8.75 16.0,6.0 C 18.44,3.81 18.44,3.81 21.0,2.0 C 21.33,1.34 21.66,0.68 22.0,0.0 M 66.0,0.0 C 72.6,0.0 79.2,0.0 86.0,0.0 C 88.32,4.64 88.44,6.09 87.0,11.0 C 84.88,13.32 82.55,15.18 80.0,17.0 C 81.88,20.88 81.88,20.88 83.0,22.0 C 84.07,22.14 85.14,22.29 86.25,22.44 C 89.52,22.93 92.01,23.64 95.0,25.0 C 95.66,24.34 96.32,23.68 97.0,23.0 C 97.99,23.0 98.97999999999999,23.0 100.0,23.0 C 99.97999999999999,24.18 99.96000000000001,25.35 99.94,26.56 C 99.93,29.44 100.14,31.94 100.56,34.81 C 101.0,38.0 101.0,38.0 100.0,41.0 C 99.09,40.84 98.19,40.67 97.25,40.5 C 94.0,40.0 94.0,40.0 90.0,40.0 C 87.75,43.0 87.75,43.0 86.0,46.0 C 86.78,46.25 87.57,46.49 88.38,46.75 C 91.42,48.2 91.73,49.0 93.0,52.0 C 93.53999999999999,52.54 94.07,53.07 94.62,53.62 C 95.08,54.08 95.53,54.53 96.0,55.0 C 96.0,55.66 96.0,56.32 96.0,57.0 C 95.01,57.0 94.02,57.0 93.0,57.0 C 92.67,56.01 92.34,55.02 92.0,54.0 C 90.35,54.66 88.7,55.32 87.0,56.0 C 87.33,56.99 87.66,57.98 88.0,59.0 C 88.5,59.16 88.5,59.16 91.0,60.0 C 91.28999999999999,60.64 91.58,61.28 91.88,61.94 C 93.39,64.72 95.06,65.07 98.0,66.0 C 98.31,68.81 98.31,68.81 98.0,72.0 C 95.6,74.07 94.06,74.97 90.88,75.06 C 89.0,74.0 89.0,74.0 87.81,71.0 C 86.0,68.0 86.0,68.0 84.13,67.42 C 81.75,67.17 79.39,67.07 77.0,67.0 C 75.31,66.83 73.62,66.64 71.94,66.44 C 70.64,66.29 69.34,66.15 68.0,66.0 C 68.0,64.68 68.0,63.36 68.0,62.0 C 70.64,61.84 70.64,61.84 84.0,61.0 C 84.0,56.0 84.0,56.0 82.0,53.0 C 81.88,50.5 81.88,50.5 82.0,48.0 C 82.0,47.01 82.0,46.02 82.0,45.0 C 82.16,44.39 82.32,43.79 82.49,43.16 C 83.11,40.52 83.13,38.09 83.12,35.38 C 83.13,34.41 83.13,33.45 83.13,32.46 C 83.0,30.0 83.0,30.0 82.0,28.0 C 79.69,28.12 79.69,28.12 77.0,29.0 C 75.19,32.06 75.19,32.06 74.0,35.0 C 71.03,35.0 68.06,35.0 65.0,35.0 C 65.66,36.32 66.32,37.64 67.0,39.0 C 67.57,42.85 67.32,44.48 65.25,47.81 C 60.54,50.99 55.63,51.32 50.0,51.0 C 47.86,48.86 47.57,47.87 47.0,45.0 C 44.36,45.0 41.72,45.0 39.0,45.0 C 37.79,41.38 38.46,40.36 40.0,37.0 C 36.61,34.27 33.7,32.07 29.240000000000002,31.89 C 26.79,32.16 24.409999999999997,32.5 22.0,33.0 C 21.729999999999997,32.22 21.46,31.43 21.189999999999998,30.62 C 20.0,28.0 20.0,28.0 17.0,26.0 C 17.33,25.01 17.659999999999997,24.02 18.0,23.0 C 25.869999999999997,23.87 25.869999999999997,23.87 27.0,25.0 C 29.700000000000003,25.54 32.42,25.96 35.14,26.4 C 37.989999999999995,27.0 40.4,27.7 43.0,29.0 C 44.81,32.12 44.81,32.12 46.0,35.0 C 46.989999999999995,34.84 46.989999999999995,34.84 52.0,34.0 C 52.04,33.24 52.08,32.47 52.12,31.69 C 53.0,29.0 53.0,29.0 56.06,27.19 C 57.03,26.8 58.0,26.4 59.0,26.0 C 58.62,24.06 58.62,24.06 58.0,22.0 C 57.34,21.67 56.68,21.34 56.0,21.0 C 55.67,21.66 55.34,22.32 55.0,23.0 C 53.019999999999996,22.67 51.04,22.34 49.0,22.0 C 48.33,18.0 47.67,14.0 47.0,10.0 C 52.5,6.0 52.5,6.0 57.0,6.0 C 57.39,6.76 57.769999999999996,7.52 58.17,8.3 C 58.43,8.8 58.43,8.8 59.75,11.31 C 60.26,12.3 60.769999999999996,13.28 61.3,14.3 C 62.97,16.95 64.38,18.33 67.0,20.0 C 67.66,19.67 68.32,19.34 69.0,19.0 C 68.34,18.34 67.68,17.68 67.0,17.0 C 66.18,15.24 65.44,13.44 64.75,11.62 C 64.37,10.67 64.0,9.71 63.61,8.73 C 63.0,6.0 63.0,6.0 63.83,3.77 C 64.02,3.48 64.02,3.48 65.0,2.0 C 65.33,1.34 65.66,0.68 66.0,0.0 M 56.0,36.0 C 55.44,37.94 55.44,37.94 55.0,40.0 C 56.0,41.0 56.0,41.0 59.06,41.06 C 60.03,41.04 61.0,41.02 62.0,41.0 C 62.0,40.01 62.0,39.02 62.0,38.0 C 59.0,36.0 59.0,36.0 56.0,36.0 M 41.0,5.0 C 42.88,5.25 42.88,5.25 45.0,6.0 C 46.25,8.06 46.25,8.06 47.0,10.0 C 46.01,11.32 45.019999999999996,12.64 44.0,14.0 C 43.01,13.67 42.02,13.34 41.0,13.0 C 41.0,10.36 41.0,7.720000000000001 41.0,5.0 M 13.0,15.0 C 14.14,19.27 15.0,22.56 15.0,27.0 C 13.12,30.189999999999998 11.33,31.5 8.0,33.0 C 7.34,33.66 6.68,34.32 6.0,35.0 C 6.01,34.69 6.01,34.69 6.07,33.1 C 6.09,32.28 6.11,31.47 6.12,30.619999999999997 C 6.15,29.810000000000002 6.17,29.0 6.2,28.16 C 6.0,26.0 6.0,26.0 4.0,24.0 C 3.880000000000001,20.38 3.880000000000001,20.38 4.0,17.0 C 7.37,15.5 9.2,15.0 13.0,15.0 M 5.0,44.0 C 6.53,44.09 8.05,44.25 9.559999999999999,44.44 C 9.98,44.49 9.98,44.49 12.07,44.75 C 12.7,44.83 13.34,44.91 14.0,45.0 C 13.67,45.99 13.34,46.98 13.0,48.0 C 10.36,48.33 7.720000000000001,48.66 5.0,49.0 C 4.4399999999999995,47.06 4.4399999999999995,47.06 4.0,45.0 C 4.33,44.67 4.66,44.34 5.0,44.0 M 56.0,58.0 C 56.16,58.99 56.16,58.99 57.0,64.0 C 56.34,64.37 55.68,64.74 55.0,65.12 C 54.34,65.74 53.68,66.36 53.0,67.0 C 52.95,69.0 52.96,71.0 53.0,73.0 C 52.18,75.45 51.12,77.66 50.0,80.0 C 51.32,80.0 52.64,80.0 54.0,80.0 C 54.66,78.35 55.32,76.7 56.0,75.0 C 59.0,76.0 59.0,76.0 60.019999999999996,77.71000000000001 C 62.17,83.4 62.17,83.4 61.38,86.25 C 60.45,87.42 59.49,88.57 58.5,89.69 C 56.24,93.17 55.73,96.96000000000001 55.0,101.0 C 54.34,101.0 53.68,101.0 53.0,101.0 C 51.0,94.38 51.0,94.38 51.0,91.0 C 47.83,89.09 45.89,88.84 42.25,89.38 C 41.85,89.43 41.85,89.43 39.83,89.71000000000001 C 39.53,89.76 39.53,89.76 38.0,90.0 C 38.019999999999996,91.28 38.04,92.56 38.06,93.88 C 38.120000000000005,97.75 38.120000000000005,97.75 37.0,100.0 C 36.22,100.35 35.43,100.7 34.620000000000005,101.06 C 30.74,103.93 30.26,107.49000000000001 29.0,112.0 C 28.82,112.43 28.82,112.43 27.94,114.62 C 27.0,117.0 27.0,117.0 26.19,120.44 C 25.0,124.0 25.0,124.0 22.5,126.94 C 20.130000000000003,129.84 19.6,130.85 18.880000000000003,134.31 C 18.590000000000003,135.53 18.299999999999997,136.75 18.0,138.0 C 17.5,138.16 17.5,138.16 15.0,139.0 C 13.329999999999998,137.32999999999998 11.670000000000002,135.67000000000002 10.0,134.0 C 9.399999999999999,133.55 8.799999999999997,133.09 8.189999999999998,132.62 C 5.259999999999998,128.63 7.130000000000003,121.86 7.590000000000003,117.11 C 8.04,114.81 8.86,113.05 10.0,111.0 C 8.68,110.34 7.359999999999999,109.68 6.0,109.0 C 6.0,106.69 6.0,104.38 6.0,102.0 C 8.79,103.18 10.600000000000001,104.50999999999999 12.939999999999998,106.5 C 15.670000000000002,108.72999999999999 17.689999999999998,109.93 21.0,111.0 C 21.990000000000002,110.00999999999999 22.979999999999997,109.02000000000001 24.0,108.0 C 21.689999999999998,107.67 19.380000000000003,107.34 17.0,107.0 C 17.75,100.38 17.75,100.38 20.0,97.0 C 20.54,97.09 20.54,97.09 23.25,97.56 C 28.69,98.2 28.69,98.2 31.0,97.0 C 32.19,94.75 32.19,94.75 33.0,92.0 C 33.31,91.17 33.620000000000005,90.35 33.94,89.5 C 34.0,87.0 34.0,87.0 31.69,84.31 C 30.8,83.55 29.91,82.78999999999999 29.0,82.0 C 26.4,79.4 26.7,78.18 26.69,74.56 C 26.67,73.59 26.65,72.63 26.64,71.63 C 27.0,69.0 27.0,69.0 28.25,67.21000000000001 C 31.48,64.98 35.15,64.84 39.0,65.0 C 41.81,66.56 41.81,66.56 44.0,68.0 C 46.25,67.5 46.25,67.5 48.0,66.0 C 48.38,64.34 48.71,62.68 49.0,61.0 C 51.31,57.81 51.8,58.0 56.0,58.0 M 19.0,116.0 C 18.340000000000003,117.32 17.68,118.64 17.0,120.0 C 18.32,120.33 19.64,120.66 21.0,121.0 C 21.33,119.68 21.659999999999997,118.36 22.0,117.0 C 21.009999999999998,116.67 20.020000000000003,116.34 19.0,116.0 M 79.0,75.0 C 79.53,75.42 80.06,75.84 80.61,76.28 C 81.32,76.83 82.02,77.37 82.75,77.94 C 83.1,78.21 83.1,78.21 84.86,79.59 C 87.0,81.0 87.0,81.0 89.2,81.5 C 89.5,81.59 89.5,81.59 91.0,82.0 C 91.33,82.99 91.66,83.98 92.0,85.0 C 94.06,85.69 94.06,85.69 96.0,86.0 C 96.33,85.34 96.66,84.68 97.0,84.0 C 99.38,83.81 99.38,83.81 102.0,84.0 C 102.66,84.99 103.32,85.98 104.0,87.0 C 100.25,89.0 100.25,89.0 98.0,89.0 C 98.16,89.66 98.16,89.66 99.0,93.0 C 94.03,94.76 89.26,96.33 84.0,97.0 C 83.38,100.38 83.38,100.38 83.0,104.0 C 83.66,104.66 84.32,105.32 85.0,106.0 C 85.0,106.99 85.0,107.97999999999999 85.0,109.0 C 83.68,109.66 82.36,110.32 81.0,111.0 C 81.75,111.58 82.5,112.16 83.27,112.75999999999999 C 93.68,121.02000000000001 93.68,121.02000000000001 96.0,126.0 C 95.88,128.31 95.88,128.31 95.0,130.0 C 94.67,130.16 94.67,130.16 93.0,131.0 C 92.15,133.07 92.15,133.07 91.38,135.56 C 91.15,136.29 91.15,136.29 90.0,140.0 C 85.71,140.0 81.42,140.0 77.0,140.0 C 76.65,138.89 76.3,137.77 75.94,136.62 C 75.13,134.69 75.13,134.69 74.0,133.0 C 70.38,131.62 70.38,131.62 67.0,131.0 C 66.0,130.0 66.0,130.0 65.75,127.62 C 66.0,125.0 66.0,125.0 67.0,123.12 C 70.33,121.25 73.32,122.34 77.0,123.0 C 77.0,122.34 77.0,121.68 77.0,121.0 C 76.01,120.34 75.02,119.68 74.0,119.0 C 73.88,116.06 73.88,116.06 74.0,113.0 C 73.83,112.5 73.83,112.5 73.0,110.0 C 73.64,109.4 74.28,108.8 74.94,108.19 C 77.0,106.0 77.0,106.0 78.0,103.0 C 77.17,100.26 76.56,98.33 75.0,96.0 C 73.01,94.98 71.01,93.98 69.0,93.0 C 67.3,89.73 66.86,87.89 67.44,84.25 C 69.68,81.03 72.3,81.04 76.0,80.0 C 77.94,77.38 77.94,77.38 79.0,75.0 M 120.0,80.0 C 120.66,80.0 121.32,80.0 122.0,80.0 C 122.0,86.6 122.0,93.2 122.0,100.0 C 121.34,100.0 120.68,100.0 120.0,100.0 C 119.83,97.58 119.67,95.17 119.5,92.75 C 119.45,92.07 119.4,91.39 119.36,90.68 C 119.14,87.44 119.0,84.25 119.0,81.0 C 119.33,80.67 119.66,80.34 120.0,80.0 M 0.0,84.0 C 0.99,84.33 1.98,84.66 3.0,85.0 C 4.19,87.56 4.19,87.56 5.0,90.0 C 5.62,89.65 6.24,89.3 6.88,88.94 C 7.58,88.63 8.28,88.32 9.0,88.0 C 9.66,88.33 10.32,88.66 11.0,89.0 C 10.44,92.34 9.65,95.03 8.0,98.0 C 5.36,97.34 2.72,96.68 0.0,96.0 C 0.0,92.03999999999999 0.0,88.08 0.0,84.0 M 40.0,121.0 C 40.66,121.0 41.32,121.0 42.0,121.0 C 46.06,127.4 46.06,127.4 45.75,130.44 C 45.5,130.95 45.26,131.47 45.0,132.0 C 43.0,132.04 41.0,132.04 39.0,132.0 C 38.67,131.67 38.34,131.34 38.0,131.0 C 38.09,128.97 38.09,128.97 38.38,126.5 C 38.47,125.69 38.56,124.87 38.65,124.03 C 39.0,122.0 39.0,122.0 40.0,121.0 M 121.0,128.0 C 121.33,128.0 121.66,128.0 122.0,128.0 C 122.0,131.96 122.0,135.92 122.0,140.0 C 117.05,140.0 112.1,140.0 107.0,140.0 C 107.33,138.68 107.66,137.36 108.0,136.0 C 108.85,136.16 109.69,136.33 110.56,136.5 C 115.32,135.81 116.7,133.41 119.58,129.75 C 120.05,129.17 120.52,128.59 121.0,128.0" fill-rule="evenodd" />
  </g>
</svg>